<mxfile host="65bd71144e">
    <diagram id="7fnBgj7PPnSVGCgMZrqh" name="Page-1">
        <mxGraphModel dx="899" dy="353" grid="1" gridSize="10" guides="1" tooltips="1" connect="1" arrows="1" fold="1" page="1" pageScale="1" pageWidth="827" pageHeight="1169" math="0" shadow="0">
            <root>
                <mxCell id="0"/>
                <mxCell id="1" parent="0"/>
                <mxCell id="34" value="App" style="whiteSpace=wrap;html=1;" parent="1" vertex="1">
                    <mxGeometry x="340" y="200" width="106" height="40" as="geometry"/>
                </mxCell>
                <mxCell id="35" style="edgeStyle=orthogonalEdgeStyle;html=1;exitX=0.5;exitY=0;exitDx=0;exitDy=0;entryX=0;entryY=0.5;entryDx=0;entryDy=0;" parent="1" source="36" target="34" edge="1">
                    <mxGeometry relative="1" as="geometry"/>
                </mxCell>
                <mxCell id="36" value="Client" style="whiteSpace=wrap;html=1;shadow=0;" parent="1" vertex="1">
                    <mxGeometry x="70" y="290" width="190" height="20" as="geometry"/>
                </mxCell>
                <mxCell id="37" style="edgeStyle=orthogonalEdgeStyle;html=1;exitX=0.5;exitY=0;exitDx=0;exitDy=0;entryX=1;entryY=0.5;entryDx=0;entryDy=0;" parent="1" source="38" target="34" edge="1">
                    <mxGeometry relative="1" as="geometry"/>
                </mxCell>
                <mxCell id="38" value="Server" style="whiteSpace=wrap;html=1;" parent="1" vertex="1">
                    <mxGeometry x="590" y="290" width="170" height="20" as="geometry"/>
                </mxCell>
                <mxCell id="43" style="edgeStyle=none;html=1;exitX=0.5;exitY=1;exitDx=0;exitDy=0;fontSize=12;" parent="1" source="39" target="40" edge="1">
                    <mxGeometry relative="1" as="geometry"/>
                </mxCell>
                <mxCell id="39" value="+ get_temperature()&lt;br&gt;+ toggle_led()&lt;br&gt;+ establish_session()&lt;br&gt;+ terminate_session" style="whiteSpace=wrap;html=1;shadow=0;align=left;" parent="1" vertex="1">
                    <mxGeometry x="70" y="310" width="190" height="70" as="geometry"/>
                </mxCell>
                <mxCell id="40" value="Session" style="whiteSpace=wrap;html=1;shadow=0;fontSize=12;" parent="1" vertex="1">
                    <mxGeometry x="65" y="440" width="200" height="20" as="geometry"/>
                </mxCell>
                <mxCell id="46" style="edgeStyle=none;html=1;exitX=0.5;exitY=1;exitDx=0;exitDy=0;entryX=0.465;entryY=0.05;entryDx=0;entryDy=0;entryPerimeter=0;fontSize=12;" parent="1" source="41" target="44" edge="1">
                    <mxGeometry relative="1" as="geometry"/>
                </mxCell>
                <mxCell id="41" value="+ session_init()&lt;br&gt;+session_transfer()" style="whiteSpace=wrap;html=1;shadow=0;fontSize=12;align=left;" parent="1" vertex="1">
                    <mxGeometry x="65" y="460" width="200" height="40" as="geometry"/>
                </mxCell>
                <mxCell id="44" value="Protocol" style="whiteSpace=wrap;html=1;shadow=0;fontSize=12;" parent="1" vertex="1">
                    <mxGeometry x="65" y="560" width="215" height="20" as="geometry"/>
                </mxCell>
                <mxCell id="45" value="+ protocol_init()&lt;br&gt;+ protocol_send()&lt;br&gt;+ protocol_receive()" style="whiteSpace=wrap;html=1;shadow=0;fontSize=12;align=left;" parent="1" vertex="1">
                    <mxGeometry x="65" y="580" width="215" height="60" as="geometry"/>
                </mxCell>
                <mxCell id="65" style="edgeStyle=none;html=1;exitX=0.25;exitY=1;exitDx=0;exitDy=0;entryX=0.25;entryY=0;entryDx=0;entryDy=0;" edge="1" parent="1" source="47" target="48">
                    <mxGeometry relative="1" as="geometry"/>
                </mxCell>
                <mxCell id="47" value="+ server_init()&lt;br&gt;+ server_run()" style="whiteSpace=wrap;html=1;shadow=0;fontSize=12;align=left;" parent="1" vertex="1">
                    <mxGeometry x="590" y="310" width="170" height="50" as="geometry"/>
                </mxCell>
                <mxCell id="67" style="edgeStyle=none;html=1;exitX=0.75;exitY=0;exitDx=0;exitDy=0;entryX=0.75;entryY=1;entryDx=0;entryDy=0;" edge="1" parent="1" source="48" target="47">
                    <mxGeometry relative="1" as="geometry"/>
                </mxCell>
                <mxCell id="48" value="Session" style="whiteSpace=wrap;html=1;" vertex="1" parent="1">
                    <mxGeometry x="592.51" y="450" width="167.5" height="20" as="geometry"/>
                </mxCell>
                <mxCell id="63" style="edgeStyle=none;html=1;exitX=0.25;exitY=1;exitDx=0;exitDy=0;entryX=0.146;entryY=-0.15;entryDx=0;entryDy=0;entryPerimeter=0;" edge="1" parent="1" source="49" target="51">
                    <mxGeometry relative="1" as="geometry"/>
                </mxCell>
                <mxCell id="70" value="read" style="edgeLabel;html=1;align=center;verticalAlign=middle;resizable=0;points=[];" vertex="1" connectable="0" parent="63">
                    <mxGeometry x="-0.078" relative="1" as="geometry">
                        <mxPoint as="offset"/>
                    </mxGeometry>
                </mxCell>
                <mxCell id="49" value="" style="whiteSpace=wrap;html=1;" vertex="1" parent="1">
                    <mxGeometry x="592.5" y="470" width="167.5" height="60" as="geometry"/>
                </mxCell>
                <mxCell id="56" style="edgeStyle=none;html=1;exitX=0.75;exitY=0;exitDx=0;exitDy=0;entryX=0.666;entryY=1.017;entryDx=0;entryDy=0;entryPerimeter=0;" edge="1" parent="1" source="51" target="49">
                    <mxGeometry relative="1" as="geometry"/>
                </mxCell>
                <mxCell id="69" value="write" style="edgeLabel;html=1;align=center;verticalAlign=middle;resizable=0;points=[];" vertex="1" connectable="0" parent="56">
                    <mxGeometry x="-0.1014" y="-2" relative="1" as="geometry">
                        <mxPoint as="offset"/>
                    </mxGeometry>
                </mxCell>
                <mxCell id="51" value="Protocol" style="whiteSpace=wrap;html=1;" vertex="1" parent="1">
                    <mxGeometry x="619.37" y="610" width="113.75" height="20" as="geometry"/>
                </mxCell>
                <mxCell id="53" value="+ serial_init&lt;br&gt;+ serial_read&lt;br&gt;+ serial_write" style="whiteSpace=wrap;html=1;align=left;" vertex="1" parent="1">
                    <mxGeometry x="619.38" y="630" width="113.75" height="50" as="geometry"/>
                </mxCell>
            </root>
        </mxGraphModel>
    </diagram>
</mxfile>